<svg xmlns="http://www.w3.org/2000/svg" version="1.1" xmlns:xlink="http://www.w3.org/1999/xlink" width="512" height="512" x="0" y="0" viewBox="0 0 512 512" style="enable-background:new 0 0 512 512" xml:space="preserve" class=""><g><path d="M437.02 74.98C388.668 26.63 324.383 0 256 0 187.621 0 123.332 26.629 74.98 74.98 26.63 123.332 0 187.621 0 256s26.629 132.668 74.98 181.02C123.332 485.37 187.621 512 256 512c68.383 0 132.668-26.629 181.02-74.98C485.37 388.668 512 324.379 512 256s-26.629-132.668-74.98-181.02zM256 482C131.383 482 30 380.617 30 256S131.383 30 256 30s226 101.383 226 226-101.383 226-226 226zm0 0" fill="#4caf50" opacity="1" data-original="#000000" class=""></path><path d="M256 64.266C150.277 64.266 64.27 150.277 64.27 256S150.277 447.734 256 447.734 447.73 361.723 447.73 256 361.723 64.266 256 64.266zm0 353.468c-89.18 0-161.73-72.554-161.73-161.734S166.82 94.266 256 94.266 417.73 166.82 417.73 256 345.18 417.734 256 417.734zm0 0" fill="#4caf50" opacity="1" data-original="#000000" class=""></path><path d="m310.066 270.742-9.078-18.152-31.57 63.137a14.997 14.997 0 0 1-26.832 0l-31.57-63.141-9.079 18.156a15 15 0 0 1-13.417 8.29h-57.895C141.496 338.358 193.578 383.468 256 383.468s114.504-45.106 125.379-104.438H323.48a14.994 14.994 0 0 1-13.414-8.289zm0 0" fill="#4caf50" opacity="1" data-original="#000000" class=""></path><path d="M197.598 212.34a14.997 14.997 0 0 1 26.832 0L256 275.48l31.57-63.14a14.997 14.997 0 0 1 26.832 0l18.352 36.691h50.52c-3.63-67.054-59.329-120.5-127.274-120.5s-123.645 53.446-127.273 120.5h50.523zm0 0" fill="#4caf50" opacity="1" data-original="#000000" class=""></path></g></svg>